<svg xmlns="http://www.w3.org/2000/svg" width="220" height="23" viewBox="0 0 220 23" fill="none"><path d="M34.7188 22.1875C33.2266 22.1875 32.0234 21.7227 31.1094 20.793C30.2031 19.8633 29.75 18.5625 29.75 16.8906V7.375C29.75 5.375 30.1445 3.84375 30.9336 2.78125C31.7305 1.71875 33.0234 1.1875 34.8125 1.1875C35.7891 1.1875 36.6562 1.36719 37.4141 1.72656C38.1797 2.08594 38.7812 2.625 39.2188 3.34375C39.6562 4.05469 39.875 4.95312 39.875 6.03906V9.60156H35.7734V6.55469C35.7734 5.9375 35.6953 5.52344 35.5391 5.3125C35.3828 5.09375 35.1406 4.98438 34.8125 4.98438C34.4297 4.98438 34.1719 5.125 34.0391 5.40625C33.9062 5.67969 33.8398 6.04688 33.8398 6.50781V16.832C33.8398 17.4023 33.9219 17.8047 34.0859 18.0391C34.2578 18.2734 34.5 18.3906 34.8125 18.3906C35.1641 18.3906 35.4102 18.2461 35.5508 17.957C35.6992 17.668 35.7734 17.293 35.7734 16.832V13.1172H39.9219V17.0195C39.9219 18.832 39.4648 20.1484 38.5508 20.9688C37.6367 21.7812 36.3594 22.1875 34.7188 22.1875ZM41.3047 22V1.375H45.4297V18.4844H49.6719V22H41.3047ZM50.2812 22L52.2734 1.375H59.2695L61.2266 22H57.3242L57.0312 18.6719H54.5469L54.2891 22H50.2812ZM54.8398 15.3789H56.7148L55.8125 4.89062H55.625L54.8398 15.3789ZM67.3906 22.1875C65.5078 22.1875 64.1484 21.7188 63.3125 20.7812C62.4844 19.8438 62.0703 18.3516 62.0703 16.3047V14.2891H66.1484V16.8672C66.1484 17.3438 66.2188 17.7188 66.3594 17.9922C66.5078 18.2578 66.7617 18.3906 67.1211 18.3906C67.4961 18.3906 67.7539 18.2812 67.8945 18.0625C68.043 17.8438 68.1172 17.4844 68.1172 16.9844C68.1172 16.3516 68.0547 15.8242 67.9297 15.4023C67.8047 14.9727 67.5859 14.5664 67.2734 14.1836C66.9688 13.793 66.543 13.3398 65.9961 12.8242L64.1445 11.0664C62.7617 9.76172 62.0703 8.26953 62.0703 6.58984C62.0703 4.83203 62.4766 3.49219 63.2891 2.57031C64.1094 1.64844 65.293 1.1875 66.8398 1.1875C68.7305 1.1875 70.0703 1.69141 70.8594 2.69922C71.6562 3.70703 72.0547 5.23828 72.0547 7.29297H67.8594V5.875C67.8594 5.59375 67.7773 5.375 67.6133 5.21875C67.457 5.0625 67.2422 4.98438 66.9688 4.98438C66.6406 4.98438 66.3984 5.07812 66.2422 5.26562C66.0938 5.44531 66.0195 5.67969 66.0195 5.96875C66.0195 6.25781 66.0977 6.57031 66.2539 6.90625C66.4102 7.24219 66.7188 7.62891 67.1797 8.06641L69.5586 10.3516C70.0352 10.8047 70.4727 11.2852 70.8711 11.793C71.2695 12.293 71.5898 12.8789 71.832 13.5508C72.0742 14.2148 72.1953 15.0273 72.1953 15.9883C72.1953 17.9258 71.8359 19.4453 71.1172 20.5469C70.4062 21.6406 69.1641 22.1875 67.3906 22.1875ZM78.4766 22.1875C76.5938 22.1875 75.2344 21.7188 74.3984 20.7812C73.5703 19.8438 73.1562 18.3516 73.1562 16.3047V14.2891H77.2344V16.8672C77.2344 17.3438 77.3047 17.7188 77.4453 17.9922C77.5938 18.2578 77.8477 18.3906 78.207 18.3906C78.582 18.3906 78.8398 18.2812 78.9805 18.0625C79.1289 17.8438 79.2031 17.4844 79.2031 16.9844C79.2031 16.3516 79.1406 15.8242 79.0156 15.4023C78.8906 14.9727 78.6719 14.5664 78.3594 14.1836C78.0547 13.793 77.6289 13.3398 77.082 12.8242L75.2305 11.0664C73.8477 9.76172 73.1562 8.26953 73.1562 6.58984C73.1562 4.83203 73.5625 3.49219 74.375 2.57031C75.1953 1.64844 76.3789 1.1875 77.9258 1.1875C79.8164 1.1875 81.1562 1.69141 81.9453 2.69922C82.7422 3.70703 83.1406 5.23828 83.1406 7.29297H78.9453V5.875C78.9453 5.59375 78.8633 5.375 78.6992 5.21875C78.543 5.0625 78.3281 4.98438 78.0547 4.98438C77.7266 4.98438 77.4844 5.07812 77.3281 5.26562C77.1797 5.44531 77.1055 5.67969 77.1055 5.96875C77.1055 6.25781 77.1836 6.57031 77.3398 6.90625C77.4961 7.24219 77.8047 7.62891 78.2656 8.06641L80.6445 10.3516C81.1211 10.8047 81.5586 11.2852 81.957 11.793C82.3555 12.293 82.6758 12.8789 82.918 13.5508C83.1602 14.2148 83.2812 15.0273 83.2812 15.9883C83.2812 17.9258 82.9219 19.4453 82.2031 20.5469C81.4922 21.6406 80.25 22.1875 78.4766 22.1875ZM84.4766 22V1.375H88.4609V22H84.4766ZM90.1016 22V1.375H98.3516V5.39453H94.25V8.67578H98.1406V12.6484H94.25V22H90.1016ZM99.5 22V1.375H103.484V22H99.5ZM109.93 22.1875C108.438 22.1875 107.234 21.7227 106.32 20.793C105.414 19.8633 104.961 18.5625 104.961 16.8906V7.375C104.961 5.375 105.355 3.84375 106.145 2.78125C106.941 1.71875 108.234 1.1875 110.023 1.1875C111 1.1875 111.867 1.36719 112.625 1.72656C113.391 2.08594 113.992 2.625 114.43 3.34375C114.867 4.05469 115.086 4.95312 115.086 6.03906V9.60156H110.984V6.55469C110.984 5.9375 110.906 5.52344 110.75 5.3125C110.594 5.09375 110.352 4.98438 110.023 4.98438C109.641 4.98438 109.383 5.125 109.25 5.40625C109.117 5.67969 109.051 6.04688 109.051 6.50781V16.832C109.051 17.4023 109.133 17.8047 109.297 18.0391C109.469 18.2734 109.711 18.3906 110.023 18.3906C110.375 18.3906 110.621 18.2461 110.762 17.957C110.91 17.668 110.984 17.293 110.984 16.832V13.1172H115.133V17.0195C115.133 18.832 114.676 20.1484 113.762 20.9688C112.848 21.7812 111.57 22.1875 109.93 22.1875ZM115.953 22L117.945 1.375H124.941L126.898 22H122.996L122.703 18.6719H120.219L119.961 22H115.953ZM120.512 15.3789H122.387L121.484 4.89062H121.297L120.512 15.3789ZM128.164 22V1.375H133.836C135.32 1.375 136.438 1.78906 137.188 2.61719C137.938 3.4375 138.312 4.64063 138.312 6.22656V15.8828C138.312 17.8359 137.969 19.3438 137.281 20.4062C136.602 21.4688 135.406 22 133.695 22H128.164ZM132.312 18.3555H133.027C133.785 18.3555 134.164 17.9883 134.164 17.2539V6.61328C134.164 5.92578 134.07 5.48438 133.883 5.28906C133.703 5.08594 133.332 4.98438 132.77 4.98438H132.312V18.3555ZM144.922 22.1875C143.273 22.1875 142.012 21.6914 141.137 20.6992C140.27 19.6992 139.836 18.2578 139.836 16.375V6.57812C139.836 4.8125 140.266 3.47266 141.125 2.55859C141.992 1.64453 143.258 1.1875 144.922 1.1875C146.586 1.1875 147.848 1.64453 148.707 2.55859C149.574 3.47266 150.008 4.8125 150.008 6.57812V16.375C150.008 18.2578 149.57 19.6992 148.695 20.6992C147.828 21.6914 146.57 22.1875 144.922 22.1875ZM144.957 18.3906C145.582 18.3906 145.895 17.7852 145.895 16.5742V6.50781C145.895 5.49219 145.59 4.98438 144.98 4.98438C144.293 4.98438 143.949 5.50391 143.949 6.54297V16.5977C143.949 17.2383 144.027 17.6992 144.184 17.9805C144.34 18.2539 144.598 18.3906 144.957 18.3906ZM156.57 22.1875C154.688 22.1875 153.328 21.7188 152.492 20.7812C151.664 19.8438 151.25 18.3516 151.25 16.3047V14.2891H155.328V16.8672C155.328 17.3438 155.398 17.7188 155.539 17.9922C155.688 18.2578 155.941 18.3906 156.301 18.3906C156.676 18.3906 156.934 18.2812 157.074 18.0625C157.223 17.8438 157.297 17.4844 157.297 16.9844C157.297 16.3516 157.234 15.8242 157.109 15.4023C156.984 14.9727 156.766 14.5664 156.453 14.1836C156.148 13.793 155.723 13.3398 155.176 12.8242L153.324 11.0664C151.941 9.76172 151.25 8.26953 151.25 6.58984C151.25 4.83203 151.656 3.49219 152.469 2.57031C153.289 1.64844 154.473 1.1875 156.02 1.1875C157.91 1.1875 159.25 1.69141 160.039 2.69922C160.836 3.70703 161.234 5.23828 161.234 7.29297H157.039V5.875C157.039 5.59375 156.957 5.375 156.793 5.21875C156.637 5.0625 156.422 4.98438 156.148 4.98438C155.82 4.98438 155.578 5.07812 155.422 5.26562C155.273 5.44531 155.199 5.67969 155.199 5.96875C155.199 6.25781 155.277 6.57031 155.434 6.90625C155.59 7.24219 155.898 7.62891 156.359 8.06641L158.738 10.3516C159.215 10.8047 159.652 11.2852 160.051 11.793C160.449 12.293 160.77 12.8789 161.012 13.5508C161.254 14.2148 161.375 15.0273 161.375 15.9883C161.375 17.9258 161.016 19.4453 160.297 20.5469C159.586 21.6406 158.344 22.1875 156.57 22.1875ZM168.383 22V1.375H172.625L174.523 11.2539V1.375H178.508V22H174.477L172.414 11.6875V22H168.383ZM180.148 22V1.375H184.133V22H180.148ZM185.773 22V1.375H190.016L191.914 11.2539V1.375H195.898V22H191.867L189.805 11.6875V22H185.773ZM202.297 22.1875C201.367 22.1875 200.52 22.0078 199.754 21.6484C198.988 21.2891 198.379 20.7578 197.926 20.0547C197.48 19.3438 197.258 18.4727 197.258 17.4414V12.2734H201.336V17.1953C201.336 17.5547 201.406 17.8438 201.547 18.0625C201.695 18.2812 201.93 18.3906 202.25 18.3906C202.867 18.3906 203.176 18.0117 203.176 17.2539V1.375H207.336V16.8438C207.336 17.9375 207.121 18.8867 206.691 19.6914C206.262 20.4883 205.668 21.1055 204.91 21.543C204.152 21.9727 203.281 22.1875 202.297 22.1875ZM208.367 22L210.359 1.375H217.355L219.312 22H215.41L215.117 18.6719H212.633L212.375 22H208.367ZM212.926 15.3789H214.801L213.898 4.89062H213.711L212.926 15.3789Z" fill="#1F2937"></path><path d="M19.8848 9.46778V18.7778C19.8848 19.3671 19.6507 19.9324 19.2339 20.3491C18.8172 20.7659 18.252 21 17.6626 21H4.33815C3.74897 20.9997 3.18402 20.7655 2.76752 20.3487C2.35101 19.932 2.11704 19.367 2.11704 18.7778V9.46778M6.00259 7.38889L6.55815 1M6.00259 7.38889C6.00259 10.6133 11.0004 10.6133 11.0004 7.38889M6.00259 7.38889C6.00259 10.9178 0.274813 10.1889 1.07704 7.11333L2.23815 2.66111C2.36224 2.18559 2.64046 1.76461 3.02928 1.46405C3.4181 1.16349 3.89559 1.00029 4.38704 1H17.6137C18.1051 1.00029 18.5826 1.16349 18.9715 1.46405C19.3603 1.76461 19.6385 2.18559 19.7626 2.66111L20.9237 7.11333C21.7259 10.19 15.9981 10.9178 15.9981 7.38889M11.0004 7.38889V1M11.0004 7.38889C11.0004 10.6133 15.9981 10.6133 15.9981 7.38889M15.9981 7.38889L15.4426 1" stroke="#FF2C78" stroke-width="1.66667" stroke-linecap="round" stroke-linejoin="round"></path></svg>